<svg version="1.1" xmlns="http://www.w3.org/2000/svg" xmlns:xlink="http://www.w3.org/1999/xlink" width="412.32575" height="168.64451" viewBox="0,0,412.32575,168.64451"><g transform="translate(-8.90537,-0.65405)"><g stroke="none" stroke-miterlimit="10"><path d="M252.76097,6.90318v13.57539c0,0.26935 -0.10774,0.53871 -0.32322,0.64645c-1.72386,1.50838 -3.87868,2.26256 -6.08738,2.26256c-2.20869,0 -4.36352,-0.80806 -6.08738,-2.26256c-1.40064,-1.18515 -3.12449,-1.88547 -4.95609,-1.88547c-1.66999,0 -3.28611,0.53871 -4.63287,1.61612v8.99639c0,0.53871 -0.43096,0.96967 -0.96967,0.96967c-0.53871,0 -0.96967,-0.43096 -0.96967,-0.96967v-22.94887c0,-0.43096 0.26935,-0.70032 0.53871,-0.86193c1.72386,-1.40064 3.77094,-2.15482 5.92577,-2.15482c2.20869,0 4.41739,0.80806 6.14125,2.26256c1.40064,1.18515 3.12449,1.8316 4.95609,1.8316c1.8316,0 3.55546,-0.64645 4.95609,-1.8316c0.32322,-0.21548 0.70032,-0.26935 1.02354,-0.10774c0.32322,0.16161 0.48484,0.48484 0.48484,0.86193z" fill="#549a10"/><text transform="translate(26.94343,158.71481) scale(0.8467,0.8467)" font-size="40" xml:space="preserve" fill="#9966ff" font-family="Sans Serif" font-weight="normal" text-anchor="start"><tspan x="0" dy="0">あなたのスコアは</tspan></text><text transform="translate(28.24341,21.63575) scale(0.40887,0.40887)" font-size="40" xml:space="preserve" fill="#9966ff" font-family="Sans Serif" font-weight="normal" text-anchor="start"><tspan x="0" dy="0">もう一度プレイする場合は</tspan></text><text transform="translate(260.48112,23.99472) scale(0.5,0.5)" font-size="40" xml:space="preserve" fill="#9966ff" font-family="Sans Serif" font-weight="normal" text-anchor="start"><tspan x="0" dy="0">を押してください</tspan></text><text transform="translate(9.15537,22.40405) scale(0.5,0.5)" font-size="40" xml:space="preserve" fill="#9966ff" font-family="Sans Serif" font-weight="normal" text-anchor="start"><tspan x="0" dy="0">↑</tspan></text></g></g></svg>